<?xml version="1.0" encoding="UTF-8"?>
<svg xmlns="http://www.w3.org/2000/svg" style="display: none;">
<defs>

  <symbol id="icon-arrow-right" viewBox="0 0 256 512">
    <title id="icon-arrow-right-title">icon-arrow-right</title>
    <path d="M224.3 273l-136 136c-9.4 9.4-24.6 9.4-33.9 0l-22.6-22.6c-9.4-9.4-9.4-24.6 0-33.9l96.4-96.4-96.4-96.4c-9.4-9.4-9.4-24.6 0-33.9L54.3 103c9.4-9.4 24.6-9.4 33.9 0l136 136c9.5 9.4 9.5 24.6.1 34z"></path>
  </symbol>

    <symbol id="icon-arrow-left" viewBox="0 0 256 512">
    <title id="icon-arrow-left-title">icon-arrow-left</title>
    <path d="M31.7 239l136-136c9.4-9.4 24.6-9.4 33.9 0l22.6 22.6c9.4 9.4 9.4 24.6 0 33.9L127.9 256l96.4 96.4c9.4 9.4 9.4 24.6 0 33.9L201.7 409c-9.4 9.4-24.6 9.4-33.9 0l-136-136c-9.5-9.4-9.5-24.6-.1-34z"></path>
  </symbol>

    <symbol id="icon-compass" viewBox="0 0 512 512">
    <title id="icon-compass-title">icon-compass</title>
    <path d="M256,231.358c-13.442,0-24.643,11.2-24.643,24.642s11.2,24.643,24.643,24.643s24.643-11.2,24.643-24.643
	S269.442,231.358,256,231.358z M256,32C132.8,32,32,132.8,32,256s100.8,224,224,224s224-100.8,224-224S379.2,32,256,32z
	 M305.284,305.284L121.6,390.4l85.116-183.679L390.4,121.6L305.284,305.284z"/>
  </symbol>

  <symbol id="icon-envelope" viewBox="0 0 512 512">
    <title id="icon-envelope-title">Envelope</title>
    <path d="M464 64H48C21.49 64 0 85.49 0 112v288c0 26.51 21.49 48 48 48h416c26.51 0 48-21.49 48-48V112c0-26.51-21.49-48-48-48zm0 48v40.805c-22.422 18.259-58.168 46.651-134.587 106.49-16.841 13.247-50.201 45.072-73.413 44.701-23.208.375-56.579-31.459-73.413-44.701C106.18 199.465 70.425 171.067 48 152.805V112h416zM48 400V214.398c22.914 18.251 55.409 43.862 104.938 82.646 21.857 17.205 60.134 55.186 103.062 54.955 42.717.231 80.509-37.199 103.053-54.947 49.528-38.783 82.032-64.401 104.947-82.653V400H48z"></path>
  </symbol>

    <symbol id="icon-envelope-solid" viewBox="0 0 512 512">
    <title id="icon-envelope-solid-title">Envelope</title>
    <path d="M502.3 190.8c3.9-3.1 9.7-.2 9.7 4.7V400c0 26.5-21.5 48-48 48H48c-26.5 0-48-21.5-48-48V195.6c0-5 5.7-7.8 9.7-4.7 22.4 17.4 52.1 39.5 154.1 113.6 21.1 15.4 56.7 47.8 92.2 47.6 35.7.3 72-32.8 92.3-47.6 102-74.1 131.6-96.3 154-113.7zM256 320c23.2.4 56.6-29.2 73.4-41.4 132.7-96.3 142.8-104.7 173.4-128.7 5.8-4.5 9.2-11.5 9.2-18.9v-19c0-26.5-21.5-48-48-48H48C21.5 64 0 85.5 0 112v19c0 7.4 3.4 14.3 9.2 18.9 30.6 23.9 40.7 32.4 173.4 128.7 16.8 12.2 50.2 41.8 73.4 41.4z"></path>    
  </symbol>
</defs>
</svg>