<?xml version="1.0" encoding="UTF-8"?>
<svg xmlns="http://www.w3.org/2000/svg" style="display: none;">
<defs>
  <symbol id="icon-arrow-right" viewBox="0 0 256 512">
    <title id="icon-arrow-right-title">icon-arrow-right</title>
    <path d="M224.3 273l-136 136c-9.4 9.4-24.6 9.4-33.9 0l-22.6-22.6c-9.4-9.4-9.4-24.6 0-33.9l96.4-96.4-96.4-96.4c-9.4-9.4-9.4-24.6 0-33.9L54.3 103c9.4-9.4 24.6-9.4 33.9 0l136 136c9.5 9.4 9.5 24.6.1 34z"></path>
  </symbol>
    <symbol id="icon-arrow-left" viewBox="0 0 256 512">
    <title id="icon-arrow-left-title">icon-arrow-left</title>
    <path d="M31.7 239l136-136c9.4-9.4 24.6-9.4 33.9 0l22.6 22.6c9.4 9.4 9.4 24.6 0 33.9L127.9 256l96.4 96.4c9.4 9.4 9.4 24.6 0 33.9L201.7 409c-9.4 9.4-24.6 9.4-33.9 0l-136-136c-9.5-9.4-9.5-24.6-.1-34z"></path>
  </symbol>

    <symbol id="icon-compass" viewBox="0 0 512 512">
    <title id="icon-compass-title">icon-compass</title>
    <path d="M256,231.358c-13.442,0-24.643,11.2-24.643,24.642s11.2,24.643,24.643,24.643s24.643-11.2,24.643-24.643
	S269.442,231.358,256,231.358z M256,32C132.8,32,32,132.8,32,256s100.8,224,224,224s224-100.8,224-224S379.2,32,256,32z
	 M305.284,305.284L121.6,390.4l85.116-183.679L390.4,121.6L305.284,305.284z"/>
  </symbol>
</defs>
</svg>